<?xml version="1.0" standalone="no"?>
<!DOCTYPE svg PUBLIC "-//W3C//DTD SVG 20010904//EN"
 "http://www.w3.org/TR/2001/REC-SVG-20010904/DTD/svg10.dtd">
<svg version="1.0" xmlns="http://www.w3.org/2000/svg"
 width="936.000000pt" height="936.000000pt" viewBox="0 0 936.000000 936.000000"
 preserveAspectRatio="xMidYMid meet">
<metadata>
Created by potrace 1.11, written by Peter Selinger 2001-2013
</metadata>
<g transform="translate(0.000000,936.000000) scale(0.100000,-0.100000)"
fill="#000000" stroke="none">
<path d="M4137 9043 c-2 -2 -44 -5 -94 -8 -89 -5 -142 -10 -218 -21 -22 -3
-51 -7 -65 -9 -67 -9 -136 -19 -140 -20 -3 -1 -25 -5 -50 -9 -502 -87 -1103
-323 -1533 -603 -53 -34 -100 -63 -103 -63 -3 0 -20 -11 -38 -25 -36 -29 -36
-29 -101 -74 -28 -19 -52 -38 -55 -41 -3 -4 -36 -29 -73 -57 -209 -158 -461
-405 -695 -683 -104 -125 -392 -547 -392 -576 0 -3 -8 -18 -19 -32 -18 -26
-132 -252 -181 -357 -36 -79 -105 -253 -134 -340 -15 -44 -30 -87 -33 -95 -3
-8 -7 -19 -8 -25 -5 -19 -47 -160 -52 -175 -3 -8 -8 -24 -10 -34 -2 -11 -10
-45 -18 -75 -8 -31 -16 -67 -19 -81 -2 -14 -7 -32 -10 -40 -3 -8 -7 -31 -10
-50 -8 -49 -15 -91 -21 -116 -7 -30 -26 -161 -31 -209 -2 -22 -6 -54 -9 -70
-27 -155 -26 -735 1 -955 3 -25 7 -61 9 -80 3 -30 30 -197 41 -255 2 -11 7
-33 9 -50 15 -85 90 -367 129 -485 107 -327 264 -664 450 -966 33 -53 64 -101
70 -108 6 -6 35 -47 65 -91 60 -88 122 -168 134 -173 4 -2 7 -9 7 -16 0 -6 15
-27 33 -46 18 -19 57 -64 87 -100 167 -198 404 -424 621 -591 57 -44 111 -86
119 -92 48 -39 273 -184 375 -244 149 -86 392 -206 545 -268 112 -46 361 -132
400 -140 11 -2 24 -6 28 -9 5 -3 19 -7 33 -10 13 -3 58 -15 99 -26 41 -11 88
-23 104 -25 15 -2 36 -7 46 -10 10 -3 29 -8 42 -10 13 -3 36 -7 51 -11 38 -8
49 -10 212 -33 285 -39 376 -46 660 -44 116 0 239 1 275 1 36 0 178 0 315 -1
138 0 286 3 330 7 44 4 105 9 135 12 30 3 80 9 110 14 30 5 78 12 105 15 28 3
61 7 75 10 14 3 34 7 45 9 261 53 466 107 585 153 18 7 28 10 55 17 92 22 561
233 705 318 163 96 219 131 315 196 100 68 262 187 275 201 3 3 25 22 50 42
25 21 61 51 80 69 19 17 60 53 90 80 63 55 237 230 302 305 23 27 50 56 58 65
49 51 330 422 330 436 0 2 15 26 34 53 100 142 268 462 366 696 66 160 167
456 183 541 2 10 7 26 10 34 5 14 42 174 52 230 3 14 7 36 10 50 2 14 7 41 10
60 3 19 8 42 10 50 2 8 6 37 10 64 34 270 40 370 40 636 0 218 -6 349 -21 475
-2 22 -7 58 -9 80 -7 65 -23 163 -45 275 -24 119 -27 134 -36 172 -3 15 -5 30
-5 33 0 2 -6 23 -14 45 -8 22 -14 42 -15 45 0 3 0 6 -1 8 0 1 -2 12 -4 23 -3
12 -17 59 -32 105 -15 46 -27 86 -28 89 -16 80 -161 433 -251 610 -220 436
-470 778 -825 1130 -108 107 -203 200 -210 205 -8 6 -45 37 -84 69 -102 85
-105 87 -165 131 -30 21 -57 42 -60 45 -18 21 -345 230 -360 230 -5 0 -10 3
-12 8 -8 19 -390 207 -553 272 -171 69 -426 153 -534 176 -14 3 -28 7 -32 10
-10 6 -282 63 -328 69 -19 2 -50 7 -70 10 -20 3 -52 8 -71 11 -19 2 -46 6 -60
9 -28 5 -95 12 -210 21 -70 6 -499 10 -620 5 -30 -1 -169 0 -307 2 -139 2
-254 2 -256 0z m493 -317 c145 -10 275 -24 301 -32 9 -2 36 -7 60 -9 24 -2 58
-7 74 -10 128 -24 244 -49 325 -71 52 -13 103 -27 113 -29 9 -2 21 -6 25 -9 5
-3 19 -7 33 -9 38 -7 222 -73 349 -125 146 -59 485 -227 510 -252 5 -5 34 -22
75 -44 114 -62 404 -277 555 -410 62 -55 212 -200 249 -240 20 -22 50 -54 66
-71 98 -105 227 -264 310 -385 33 -47 63 -86 67 -88 5 -2 8 -8 8 -13 0 -6 22
-42 48 -82 27 -40 52 -79 55 -87 4 -8 23 -42 43 -75 43 -74 204 -401 209 -425
2 -10 8 -26 13 -36 41 -77 163 -444 187 -561 2 -10 11 -49 20 -88 16 -70 49
-254 59 -330 3 -22 8 -58 11 -80 23 -171 34 -560 21 -727 -4 -38 -8 -98 -11
-135 -6 -71 -9 -96 -21 -178 -4 -27 -8 -59 -9 -70 -4 -36 -17 -109 -20 -115
-2 -3 -6 -21 -9 -40 -3 -19 -8 -46 -11 -60 -3 -14 -7 -37 -10 -52 -3 -15 -9
-38 -15 -52 -5 -15 -7 -26 -5 -26 2 0 0 -11 -5 -26 -6 -14 -12 -37 -15 -52
-12 -73 -100 -329 -172 -507 -128 -314 -362 -713 -557 -951 -153 -188 -163
-199 -316 -353 -156 -157 -268 -256 -415 -367 -11 -8 -33 -26 -50 -39 -16 -14
-33 -25 -37 -25 -4 0 -13 -6 -20 -13 -22 -22 -236 -161 -341 -221 -113 -65
-401 -206 -420 -206 -7 0 -17 -4 -22 -9 -9 -7 -136 -60 -160 -66 -12 -2 -42
-13 -70 -25 -25 -11 -145 -49 -171 -55 -10 -2 -59 -16 -109 -30 -102 -29 -345
-81 -420 -90 -27 -3 -59 -8 -70 -10 -11 -2 -47 -7 -80 -11 -33 -3 -73 -8 -90
-10 -253 -28 -643 -21 -920 17 -44 6 -91 13 -105 14 -14 2 -41 6 -60 9 -19 4
-48 9 -65 12 -135 23 -435 102 -547 144 -31 11 -65 23 -75 25 -95 21 -599 261
-702 334 -16 12 -32 21 -35 21 -4 0 -66 40 -139 89 -139 93 -285 204 -402 304
-89 77 -358 346 -410 411 -22 27 -47 56 -56 65 -24 25 -173 221 -205 271 -16
25 -32 47 -36 50 -9 7 -74 113 -152 246 -115 197 -226 431 -292 618 -42 117
-96 286 -110 341 -1 6 -14 57 -29 115 -14 58 -28 119 -30 135 -3 17 -9 53 -15
80 -24 124 -48 309 -57 445 -13 204 -7 539 12 715 14 125 27 212 50 338 3 15
7 37 9 50 2 12 14 63 26 112 12 50 23 97 25 106 27 129 153 482 229 644 18 39
39 85 47 103 8 17 17 32 20 32 4 0 10 11 13 24 10 41 227 412 271 463 5 6 21
28 35 48 123 178 313 400 484 564 106 101 105 101 206 187 203 173 348 273
645 447 72 42 359 180 460 220 146 58 452 158 525 171 14 2 45 9 70 16 25 7
54 14 65 16 11 2 43 8 70 13 28 6 66 13 85 15 19 3 46 8 60 11 14 3 45 7 70
10 25 2 61 7 80 10 52 9 103 13 225 21 61 3 111 7 112 8 5 4 333 -3 413 -8z
m2458 -578 c283 -173 521 -359 749 -586 124 -124 215 -221 210 -223 -1 -1 -50
-3 -110 -4 l-107 -2 -66 81 c-146 179 -377 420 -523 546 -35 30 -71 62 -80 70
-9 8 -32 27 -51 41 -19 15 -45 35 -57 46 -12 11 -32 27 -45 36 -13 9 -57 41
-98 71 -41 30 -84 62 -95 71 -36 28 153 -74 273 -147z m1294 -1248 c42 -63 87
-135 100 -160 12 -24 28 -50 34 -56 31 -34 251 -505 269 -574 l6 -25 -146 0
-145 0 -31 80 c-18 44 -40 104 -50 133 -10 29 -25 65 -33 80 -8 15 -22 45 -32
67 -9 22 -27 62 -40 89 -13 28 -24 55 -24 62 0 7 -3 14 -7 16 -5 2 -30 46 -57
98 -27 52 -60 112 -73 133 -13 21 -32 53 -42 70 -10 18 -28 49 -41 70 l-22 38
128 -3 129 -3 77 -115z m527 -1177 c6 -27 13 -55 15 -63 13 -46 39 -159 43
-185 2 -16 13 -78 24 -136 11 -59 21 -130 22 -158 1 -28 4 -51 7 -51 5 0 12
-109 14 -224 l1 -70 -148 0 c-82 -1 -151 3 -155 8 -3 5 -7 44 -9 85 -6 154
-24 320 -47 451 -3 14 -7 41 -10 60 -9 57 -16 93 -22 120 -3 14 -7 32 -9 40
-2 8 -8 33 -13 55 -6 22 -13 57 -16 78 l-6 37 149 0 149 0 11 -47z m132 -1218
c1 -11 1 -24 0 -29 -1 -5 -4 -44 -7 -85 -2 -42 -6 -94 -9 -116 -3 -22 -7 -65
-10 -95 -3 -30 -7 -66 -10 -80 -3 -14 -8 -42 -11 -64 -3 -21 -8 -48 -10 -60
-2 -11 -11 -57 -19 -101 -9 -44 -20 -98 -26 -120 -14 -50 -16 -59 -30 -117
l-11 -48 -150 0 -150 0 6 24 c10 40 54 248 60 281 12 72 26 164 31 210 3 28 8
61 10 75 6 40 16 160 20 249 2 45 6 85 9 89 2 4 72 7 155 7 144 0 151 -1 152
-20z m-256 -1254 c-13 -51 -102 -251 -180 -406 -78 -153 -199 -357 -272 -457
l-35 -48 -114 1 c-62 0 -116 4 -118 7 -2 4 8 25 23 47 15 22 30 47 34 55 4 8
18 33 31 55 74 119 287 570 286 606 0 8 4 19 9 25 5 5 14 27 21 49 30 95 20
90 180 90 l141 0 -6 -24z m-742 -1235 c-30 -52 -328 -343 -468 -456 -44 -36
-82 -67 -85 -70 -28 -29 -332 -239 -400 -276 -19 -10 -37 -22 -38 -27 -2 -4
-8 -5 -13 -1 -5 3 -9 1 -9 -4 0 -4 -42 -30 -92 -56 -51 -26 -82 -39 -68 -29
61 44 257 194 281 215 15 13 51 43 80 68 69 57 368 357 437 437 29 34 79 95
112 136 l59 74 105 -1 c71 0 103 -3 99 -10z"/>
<path d="M4337 8418 c-54 -11 -83 -34 -107 -82 -24 -50 -25 -81 -6 -127 45
-106 179 -127 265 -41 22 21 40 102 30 136 -24 84 -100 132 -182 114z"/>
<path d="M3375 8286 c-90 -41 -119 -154 -61 -231 34 -44 75 -63 128 -60 61 3
69 6 105 41 51 50 60 124 25 191 -31 57 -135 88 -197 59z"/>
<path d="M5224 8284 c-17 -9 -43 -35 -57 -57 -45 -69 -31 -148 38 -204 33 -27
43 -30 95 -28 38 2 65 8 75 19 9 9 21 16 26 16 16 0 49 78 49 116 0 48 -24 96
-62 124 -41 30 -120 37 -164 14z"/>
<path d="M2545 7940 c-65 -14 -100 -47 -120 -112 -24 -81 23 -166 103 -187 22
-6 50 -9 63 -7 13 3 29 5 36 5 6 1 30 18 52 39 51 47 62 100 36 168 -25 67
-101 109 -170 94z"/>
<path d="M6096 7928 c-119 -61 -118 -227 2 -280 157 -70 294 127 174 247 -49
49 -119 62 -176 33z"/>
<path d="M4169 7796 c-2 -2 -40 -7 -84 -10 -44 -3 -91 -7 -105 -10 -14 -3 -47
-7 -75 -10 -39 -3 -222 -39 -315 -62 -314 -75 -714 -259 -1005 -463 -224 -156
-529 -441 -652 -609 -15 -20 -32 -42 -37 -47 -25 -24 -170 -238 -226 -335
-172 -296 -331 -722 -366 -984 -3 -22 -7 -43 -9 -46 -2 -4 -7 -29 -11 -56 -3
-27 -8 -58 -10 -69 -2 -11 -7 -54 -10 -95 -3 -41 -7 -91 -9 -110 -11 -94 -6
-418 10 -540 3 -25 7 -65 10 -90 20 -176 95 -474 166 -663 48 -126 59 -152
126 -289 150 -307 337 -571 578 -813 135 -136 232 -224 305 -275 19 -13 37
-27 40 -30 3 -3 23 -18 45 -35 22 -16 42 -31 45 -34 3 -4 14 -11 25 -17 11 -6
70 -43 130 -81 88 -56 313 -173 430 -224 28 -12 245 -91 259 -93 6 -2 31 -9
56 -16 25 -7 50 -15 55 -16 52 -16 260 -63 305 -69 8 -1 34 -5 58 -9 167 -25
257 -30 472 -30 196 0 343 7 395 20 11 2 40 6 65 9 102 9 442 89 520 122 8 3
17 7 20 7 6 1 87 31 170 63 70 27 317 147 389 189 157 92 357 235 488 350 70
61 249 238 293 290 151 177 294 379 382 542 15 28 41 77 58 107 33 61 103 218
129 290 6 17 16 44 22 60 7 17 13 35 14 41 2 7 12 38 23 70 17 50 37 116 48
159 77 317 99 488 98 785 0 165 -7 308 -18 380 -3 14 -7 48 -11 75 -3 28 -10
69 -16 93 -5 23 -11 57 -13 75 -3 17 -7 39 -10 47 -3 8 -8 26 -10 40 -38 192
-168 546 -273 740 -171 314 -327 525 -568 765 -143 142 -176 172 -284 255 -25
19 -52 40 -59 47 -7 7 -26 20 -42 30 -17 9 -30 21 -30 25 0 4 -4 8 -9 8 -5 0
-42 22 -83 49 -181 121 -416 237 -648 321 -93 33 -231 75 -278 85 -9 2 -44 10
-77 18 -33 8 -76 18 -95 21 -19 3 -46 8 -60 11 -33 6 -83 13 -155 21 -33 3
-73 8 -90 11 -37 5 -481 14 -486 9z m-1518 -1473 c13 -16 12 -17 -3 -4 -10 7
-18 15 -18 17 0 8 8 3 21 -13z m-561 -387 c0 -2 -8 -10 -17 -17 -16 -13 -17
-12 -4 4 13 16 21 21 21 13z m4481 -13 c13 -16 12 -17 -3 -4 -10 7 -18 15 -18
17 0 8 8 3 21 -13z m-640 -320 c13 -16 12 -17 -3 -4 -10 7 -18 15 -18 17 0 8
8 3 21 -13z m-196 -83 c-3 -5 -12 -10 -18 -10 -7 0 -6 4 3 10 19 12 23 12 15
0z m-3894 -167 c13 -16 12 -17 -3 -4 -17 13 -22 21 -14 21 2 0 10 -8 17 -17z
m4374 -153 c3 -6 -1 -7 -9 -4 -18 7 -21 14 -7 14 6 0 13 -4 16 -10z m-4524
-797 c13 -16 12 -17 -3 -4 -17 13 -22 21 -14 21 2 0 10 -8 17 -17z m4240 -80
c13 -16 12 -17 -3 -4 -10 7 -18 15 -18 17 0 8 8 3 21 -13z m1044 -83 c-3 -5
-12 -10 -18 -10 -7 0 -6 4 3 10 19 12 23 12 15 0z m-894 -453 c-10 -9 -11 -8
-5 6 3 10 9 15 12 12 3 -3 0 -11 -7 -18z m-141 -261 c0 -2 -8 -10 -17 -17 -16
-13 -17 -12 -4 4 13 16 21 21 21 13z m-1120 -1280 c0 -2 -8 -10 -17 -17 -16
-13 -17 -12 -4 4 13 16 21 21 21 13z"/>
<path d="M1815 7373 c-116 -21 -175 -141 -115 -237 26 -42 85 -76 132 -76 109
1 185 126 138 225 -26 55 -101 97 -155 88z"/>
<path d="M6843 7357 c-84 -31 -120 -144 -70 -217 38 -57 71 -75 137 -75 52 0
63 4 90 30 44 42 58 73 56 125 -3 71 -24 103 -83 134 -37 18 -84 20 -130 3z"/>
<path d="M1195 6616 c-111 -50 -119 -203 -14 -274 28 -20 43 -23 87 -20 64 6
99 29 129 87 64 126 -71 266 -202 207z"/>
<path d="M7426 6620 c-65 -20 -106 -83 -102 -156 2 -59 27 -99 75 -124 51 -25
91 -27 138 -6 56 25 84 66 88 129 7 110 -93 189 -199 157z"/>
<path d="M900 5762 c-52 -6 -69 -13 -100 -39 -39 -32 -52 -64 -51 -122 1 -99
97 -169 195 -141 101 28 144 148 85 234 -21 31 -34 41 -89 65 -8 4 -26 5 -40
3z"/>
<path d="M7768 5746 c-48 -24 -76 -58 -84 -101 -3 -16 -7 -31 -9 -33 -9 -9 28
-89 52 -115 71 -74 201 -49 247 46 63 133 -76 270 -206 203z"/>
<path d="M765 4834 c-6 -1 -22 -5 -36 -8 -32 -7 -95 -67 -98 -93 -12 -98 13
-158 80 -191 97 -48 207 12 222 123 6 46 -28 122 -65 144 -23 15 -85 30 -103
25z"/>
<path d="M7907 4825 c-76 -26 -114 -87 -103 -168 6 -50 1 -38 34 -75 96 -109
272 -45 272 98 0 105 -105 180 -203 145z"/>
<path d="M860 3896 c-72 -23 -110 -73 -110 -146 0 -89 71 -155 165 -153 37 0
94 35 116 69 75 122 -37 274 -171 230z"/>
<path d="M7775 3894 c-46 -19 -82 -64 -93 -117 -6 -28 -6 -50 -1 -53 5 -3 7
-9 4 -13 -8 -14 38 -74 70 -92 67 -39 141 -26 194 31 30 34 46 92 37 135 -3
11 -5 23 -5 26 -2 15 -68 77 -88 83 -41 13 -88 13 -118 0z"/>
<path d="M7408 3025 c-50 -25 -88 -82 -88 -134 0 -45 33 -110 68 -136 40 -30
137 -28 177 3 48 38 60 62 60 127 0 88 -42 138 -129 154 -37 7 -52 4 -88 -14z"/>
<path d="M1182 3020 c-142 -88 -71 -306 94 -287 145 16 188 203 64 285 -41 27
-115 28 -158 2z"/>
<path d="M1775 2288 c-119 -44 -133 -216 -23 -278 46 -26 103 -28 146 -6 27
14 81 68 83 84 11 78 -1 123 -47 167 -44 43 -98 55 -159 33z"/>
<path d="M6848 2287 c-116 -53 -132 -204 -29 -273 68 -44 166 -27 212 38 28
38 35 118 14 157 -34 67 -134 106 -197 78z"/>
<path d="M2525 1719 c-87 -25 -131 -127 -91 -210 35 -72 103 -105 178 -86 40
10 90 50 102 82 51 130 -56 251 -189 214z"/>
<path d="M6093 1710 c-83 -37 -114 -153 -59 -224 75 -99 213 -90 265 17 65
134 -69 268 -206 207z"/>
<path d="M3361 1348 c-66 -45 -91 -109 -69 -178 29 -93 127 -137 214 -95 104
49 118 198 24 265 -17 12 -52 24 -83 27 -43 4 -58 1 -86 -19z"/>
<path d="M5235 1356 c-81 -36 -118 -133 -79 -209 23 -43 59 -70 114 -83 40
-10 53 -9 85 7 63 31 95 80 95 145 0 109 -115 184 -215 140z"/>
<path d="M4298 1226 c-106 -53 -112 -205 -11 -267 97 -60 232 11 235 123 2
123 -116 199 -224 144z"/>
</g>
</svg>
